<mxfile host="app.diagrams.net" modified="2020-09-18T18:00:21.725Z" agent="5.0 (Macintosh; Intel Mac OS X 10_15_6) AppleWebKit/605.1.15 (KHTML, like Gecko) Version/13.1.2 Safari/605.1.15" etag="dTl1-CU8a7F-DBFvxIFW" version="13.6.10" type="github">
  <diagram id="F_tT1_nwPkbw1fz0lVeB" name="Page-1">
    <mxGraphModel dx="786" dy="1124" grid="1" gridSize="10" guides="1" tooltips="1" connect="1" arrows="1" fold="1" page="1" pageScale="1" pageWidth="827" pageHeight="1169" math="0" shadow="0">
      <root>
        <mxCell id="0" />
        <mxCell id="1" parent="0" />
        <mxCell id="VexqPfEMoh5Qo457YJtA-12" style="edgeStyle=orthogonalEdgeStyle;rounded=0;orthogonalLoop=1;jettySize=auto;html=1;entryX=0.5;entryY=0;entryDx=0;entryDy=0;" edge="1" parent="1" source="VexqPfEMoh5Qo457YJtA-5" target="VexqPfEMoh5Qo457YJtA-9">
          <mxGeometry relative="1" as="geometry" />
        </mxCell>
        <mxCell id="VexqPfEMoh5Qo457YJtA-5" value="Root" style="swimlane;fontStyle=0;childLayout=stackLayout;horizontal=1;startSize=26;fillColor=none;horizontalStack=0;resizeParent=1;resizeParentMax=0;resizeLast=0;collapsible=1;marginBottom=0;" vertex="1" parent="1">
          <mxGeometry x="280" y="130" width="140" height="78" as="geometry" />
        </mxCell>
        <mxCell id="VexqPfEMoh5Qo457YJtA-6" value="Item 1" style="text;strokeColor=none;fillColor=none;align=left;verticalAlign=top;spacingLeft=4;spacingRight=4;overflow=hidden;rotatable=0;points=[[0,0.5],[1,0.5]];portConstraint=eastwest;" vertex="1" parent="VexqPfEMoh5Qo457YJtA-5">
          <mxGeometry y="26" width="140" height="26" as="geometry" />
        </mxCell>
        <mxCell id="VexqPfEMoh5Qo457YJtA-7" value="Item 2" style="text;strokeColor=none;fillColor=none;align=left;verticalAlign=top;spacingLeft=4;spacingRight=4;overflow=hidden;rotatable=0;points=[[0,0.5],[1,0.5]];portConstraint=eastwest;" vertex="1" parent="VexqPfEMoh5Qo457YJtA-5">
          <mxGeometry y="52" width="140" height="26" as="geometry" />
        </mxCell>
        <mxCell id="VexqPfEMoh5Qo457YJtA-9" value="Decision node" style="swimlane;fontStyle=0;childLayout=stackLayout;horizontal=1;startSize=26;fillColor=none;horizontalStack=0;resizeParent=1;resizeParentMax=0;resizeLast=0;collapsible=1;marginBottom=0;" vertex="1" parent="1">
          <mxGeometry x="280" y="250" width="140" height="52" as="geometry" />
        </mxCell>
        <mxCell id="VexqPfEMoh5Qo457YJtA-10" value="Feature 0" style="text;strokeColor=none;fillColor=none;align=left;verticalAlign=top;spacingLeft=4;spacingRight=4;overflow=hidden;rotatable=0;points=[[0,0.5],[1,0.5]];portConstraint=eastwest;" vertex="1" parent="VexqPfEMoh5Qo457YJtA-9">
          <mxGeometry y="26" width="140" height="26" as="geometry" />
        </mxCell>
        <mxCell id="VexqPfEMoh5Qo457YJtA-17" style="edgeStyle=orthogonalEdgeStyle;rounded=0;orthogonalLoop=1;jettySize=auto;html=1;entryX=0.5;entryY=0;entryDx=0;entryDy=0;" edge="1" parent="1" source="VexqPfEMoh5Qo457YJtA-10" target="VexqPfEMoh5Qo457YJtA-13">
          <mxGeometry relative="1" as="geometry" />
        </mxCell>
        <mxCell id="VexqPfEMoh5Qo457YJtA-19" style="edgeStyle=orthogonalEdgeStyle;rounded=0;orthogonalLoop=1;jettySize=auto;html=1;entryX=0.5;entryY=0.962;entryDx=0;entryDy=0;entryPerimeter=0;startArrow=classic;startFill=1;endArrow=none;endFill=0;" edge="1" parent="1" source="VexqPfEMoh5Qo457YJtA-15" target="VexqPfEMoh5Qo457YJtA-10">
          <mxGeometry relative="1" as="geometry" />
        </mxCell>
        <mxCell id="VexqPfEMoh5Qo457YJtA-28" style="edgeStyle=orthogonalEdgeStyle;rounded=0;orthogonalLoop=1;jettySize=auto;html=1;entryX=0.5;entryY=0;entryDx=0;entryDy=0;startArrow=none;startFill=0;endArrow=classic;endFill=1;" edge="1" parent="1" source="VexqPfEMoh5Qo457YJtA-15" target="VexqPfEMoh5Qo457YJtA-26">
          <mxGeometry relative="1" as="geometry" />
        </mxCell>
        <mxCell id="VexqPfEMoh5Qo457YJtA-15" value="1" style="swimlane;fontStyle=0;childLayout=stackLayout;horizontal=1;startSize=26;fillColor=none;horizontalStack=0;resizeParent=1;resizeParentMax=0;resizeLast=0;collapsible=1;marginBottom=0;" vertex="1" parent="1">
          <mxGeometry x="312" y="350" width="76" height="20" as="geometry" />
        </mxCell>
        <mxCell id="VexqPfEMoh5Qo457YJtA-21" style="edgeStyle=orthogonalEdgeStyle;rounded=0;orthogonalLoop=1;jettySize=auto;html=1;entryX=0.5;entryY=0;entryDx=0;entryDy=0;startArrow=none;startFill=0;endArrow=classic;endFill=1;" edge="1" parent="1" source="VexqPfEMoh5Qo457YJtA-10" target="VexqPfEMoh5Qo457YJtA-16">
          <mxGeometry relative="1" as="geometry" />
        </mxCell>
        <mxCell id="VexqPfEMoh5Qo457YJtA-43" style="edgeStyle=orthogonalEdgeStyle;rounded=0;orthogonalLoop=1;jettySize=auto;html=1;startArrow=none;startFill=0;endArrow=classic;endFill=1;" edge="1" parent="1" source="VexqPfEMoh5Qo457YJtA-16" target="VexqPfEMoh5Qo457YJtA-41">
          <mxGeometry relative="1" as="geometry" />
        </mxCell>
        <mxCell id="VexqPfEMoh5Qo457YJtA-16" value="2" style="swimlane;fontStyle=0;childLayout=stackLayout;horizontal=1;startSize=26;fillColor=none;horizontalStack=0;resizeParent=1;resizeParentMax=0;resizeLast=0;collapsible=1;marginBottom=0;" vertex="1" parent="1">
          <mxGeometry x="450" y="350" width="76" height="20" as="geometry" />
        </mxCell>
        <mxCell id="VexqPfEMoh5Qo457YJtA-29" style="edgeStyle=orthogonalEdgeStyle;rounded=0;orthogonalLoop=1;jettySize=auto;html=1;startArrow=none;startFill=0;endArrow=classic;endFill=1;" edge="1" parent="1" source="VexqPfEMoh5Qo457YJtA-13" target="VexqPfEMoh5Qo457YJtA-24">
          <mxGeometry relative="1" as="geometry" />
        </mxCell>
        <mxCell id="VexqPfEMoh5Qo457YJtA-13" value="0" style="swimlane;fontStyle=0;childLayout=stackLayout;horizontal=1;startSize=26;fillColor=none;horizontalStack=0;resizeParent=1;resizeParentMax=0;resizeLast=0;collapsible=1;marginBottom=0;" vertex="1" parent="1">
          <mxGeometry x="180" y="350" width="76" height="20" as="geometry" />
        </mxCell>
        <mxCell id="VexqPfEMoh5Qo457YJtA-39" style="edgeStyle=orthogonalEdgeStyle;rounded=0;orthogonalLoop=1;jettySize=auto;html=1;entryX=0.5;entryY=0;entryDx=0;entryDy=0;startArrow=none;startFill=0;endArrow=classic;endFill=1;" edge="1" parent="1" source="VexqPfEMoh5Qo457YJtA-24" target="VexqPfEMoh5Qo457YJtA-31">
          <mxGeometry relative="1" as="geometry" />
        </mxCell>
        <mxCell id="VexqPfEMoh5Qo457YJtA-40" style="edgeStyle=orthogonalEdgeStyle;rounded=0;orthogonalLoop=1;jettySize=auto;html=1;entryX=0.5;entryY=0;entryDx=0;entryDy=0;startArrow=none;startFill=0;endArrow=classic;endFill=1;" edge="1" parent="1" source="VexqPfEMoh5Qo457YJtA-24" target="VexqPfEMoh5Qo457YJtA-30">
          <mxGeometry relative="1" as="geometry" />
        </mxCell>
        <mxCell id="VexqPfEMoh5Qo457YJtA-24" value="Decision node" style="swimlane;fontStyle=0;childLayout=stackLayout;horizontal=1;startSize=26;fillColor=none;horizontalStack=0;resizeParent=1;resizeParentMax=0;resizeLast=0;collapsible=1;marginBottom=0;" vertex="1" parent="1">
          <mxGeometry x="100" y="410" width="140" height="52" as="geometry" />
        </mxCell>
        <mxCell id="VexqPfEMoh5Qo457YJtA-25" value="Feature 1" style="text;strokeColor=none;fillColor=none;align=left;verticalAlign=top;spacingLeft=4;spacingRight=4;overflow=hidden;rotatable=0;points=[[0,0.5],[1,0.5]];portConstraint=eastwest;" vertex="1" parent="VexqPfEMoh5Qo457YJtA-24">
          <mxGeometry y="26" width="140" height="26" as="geometry" />
        </mxCell>
        <mxCell id="VexqPfEMoh5Qo457YJtA-26" value="leaf" style="swimlane;fontStyle=0;childLayout=stackLayout;horizontal=1;startSize=26;fillColor=none;horizontalStack=0;resizeParent=1;resizeParentMax=0;resizeLast=0;collapsible=1;marginBottom=0;" vertex="1" parent="1">
          <mxGeometry x="300" y="410" width="100" height="52" as="geometry" />
        </mxCell>
        <mxCell id="VexqPfEMoh5Qo457YJtA-27" value="label 1" style="text;strokeColor=none;fillColor=none;align=left;verticalAlign=top;spacingLeft=4;spacingRight=4;overflow=hidden;rotatable=0;points=[[0,0.5],[1,0.5]];portConstraint=eastwest;" vertex="1" parent="VexqPfEMoh5Qo457YJtA-26">
          <mxGeometry y="26" width="100" height="26" as="geometry" />
        </mxCell>
        <mxCell id="VexqPfEMoh5Qo457YJtA-36" style="edgeStyle=orthogonalEdgeStyle;rounded=0;orthogonalLoop=1;jettySize=auto;html=1;entryX=0.5;entryY=0;entryDx=0;entryDy=0;startArrow=none;startFill=0;endArrow=classic;endFill=1;" edge="1" parent="1" source="VexqPfEMoh5Qo457YJtA-30" target="VexqPfEMoh5Qo457YJtA-32">
          <mxGeometry relative="1" as="geometry" />
        </mxCell>
        <mxCell id="VexqPfEMoh5Qo457YJtA-30" value="2" style="swimlane;fontStyle=0;childLayout=stackLayout;horizontal=1;startSize=26;fillColor=none;horizontalStack=0;resizeParent=1;resizeParentMax=0;resizeLast=0;collapsible=1;marginBottom=0;" vertex="1" parent="1">
          <mxGeometry x="60" y="510" width="76" height="20" as="geometry" />
        </mxCell>
        <mxCell id="VexqPfEMoh5Qo457YJtA-37" style="edgeStyle=orthogonalEdgeStyle;rounded=0;orthogonalLoop=1;jettySize=auto;html=1;exitX=0.5;exitY=1;exitDx=0;exitDy=0;startArrow=none;startFill=0;endArrow=classic;endFill=1;" edge="1" parent="1" source="VexqPfEMoh5Qo457YJtA-31" target="VexqPfEMoh5Qo457YJtA-34">
          <mxGeometry relative="1" as="geometry" />
        </mxCell>
        <mxCell id="VexqPfEMoh5Qo457YJtA-31" value="3" style="swimlane;fontStyle=0;childLayout=stackLayout;horizontal=1;startSize=26;fillColor=none;horizontalStack=0;resizeParent=1;resizeParentMax=0;resizeLast=0;collapsible=1;marginBottom=0;" vertex="1" parent="1">
          <mxGeometry x="164" y="510" width="76" height="20" as="geometry" />
        </mxCell>
        <mxCell id="VexqPfEMoh5Qo457YJtA-34" value="leaf" style="swimlane;fontStyle=0;childLayout=stackLayout;horizontal=1;startSize=26;fillColor=none;horizontalStack=0;resizeParent=1;resizeParentMax=0;resizeLast=0;collapsible=1;marginBottom=0;" vertex="1" parent="1">
          <mxGeometry x="152" y="590" width="100" height="52" as="geometry" />
        </mxCell>
        <mxCell id="VexqPfEMoh5Qo457YJtA-35" value="label 1" style="text;strokeColor=none;fillColor=none;align=left;verticalAlign=top;spacingLeft=4;spacingRight=4;overflow=hidden;rotatable=0;points=[[0,0.5],[1,0.5]];portConstraint=eastwest;" vertex="1" parent="VexqPfEMoh5Qo457YJtA-34">
          <mxGeometry y="26" width="100" height="26" as="geometry" />
        </mxCell>
        <mxCell id="VexqPfEMoh5Qo457YJtA-32" value="leaf" style="swimlane;fontStyle=0;childLayout=stackLayout;horizontal=1;startSize=26;fillColor=none;horizontalStack=0;resizeParent=1;resizeParentMax=0;resizeLast=0;collapsible=1;marginBottom=0;" vertex="1" parent="1">
          <mxGeometry x="48" y="590" width="100" height="52" as="geometry" />
        </mxCell>
        <mxCell id="VexqPfEMoh5Qo457YJtA-33" value="label 0" style="text;strokeColor=none;fillColor=none;align=left;verticalAlign=top;spacingLeft=4;spacingRight=4;overflow=hidden;rotatable=0;points=[[0,0.5],[1,0.5]];portConstraint=eastwest;" vertex="1" parent="VexqPfEMoh5Qo457YJtA-32">
          <mxGeometry y="26" width="100" height="26" as="geometry" />
        </mxCell>
        <mxCell id="VexqPfEMoh5Qo457YJtA-41" value="leaf" style="swimlane;fontStyle=0;childLayout=stackLayout;horizontal=1;startSize=26;fillColor=none;horizontalStack=0;resizeParent=1;resizeParentMax=0;resizeLast=0;collapsible=1;marginBottom=0;" vertex="1" parent="1">
          <mxGeometry x="450" y="410" width="100" height="52" as="geometry" />
        </mxCell>
        <mxCell id="VexqPfEMoh5Qo457YJtA-42" value="label 0" style="text;strokeColor=none;fillColor=none;align=left;verticalAlign=top;spacingLeft=4;spacingRight=4;overflow=hidden;rotatable=0;points=[[0,0.5],[1,0.5]];portConstraint=eastwest;" vertex="1" parent="VexqPfEMoh5Qo457YJtA-41">
          <mxGeometry y="26" width="100" height="26" as="geometry" />
        </mxCell>
      </root>
    </mxGraphModel>
  </diagram>
</mxfile>
